<?xml version="1.0" standalone="no"?>
<!DOCTYPE svg PUBLIC "-//W3C//DTD SVG 20010904//EN"
 "http://www.w3.org/TR/2001/REC-SVG-20010904/DTD/svg10.dtd">
<svg version="1.0" xmlns="http://www.w3.org/2000/svg"
 width="64.000000pt" height="64.000000pt" viewBox="0 0 64.000000 64.000000"
 preserveAspectRatio="xMidYMid meet">
<metadata>
Created by potrace 1.11, written by Peter Selinger 2001-2013
</metadata>
<g transform="translate(0.000000,64.000000) scale(0.100000,-0.100000)"
fill="#000000" stroke="none">
<path d="M32 608 c-18 -18 -17 -564 1 -575 17 -10 538 -11 560 -1 16 8 17 32
17 292 0 250 -2 285 -16 290 -9 3 -136 6 -283 6 -194 0 -270 -3 -279 -12z
m536 -276 c20 -26 14 -30 -32 -25 -35 4 -48 1 -65 -16 -29 -29 -27 -74 4 -99
36 -29 68 -18 63 20 -4 25 -2 29 16 26 17 -2 21 -10 21 -43 0 -34 -4 -42 -29
-54 -38 -18 -99 0 -123 36 -23 35 -21 98 4 131 35 47 112 60 141 24z m-327 1
c4 -55 5 -189 1 -196 -2 -4 -12 -2 -23 3 -17 10 -19 22 -19 110 0 93 1 100 20
100 12 0 20 -7 21 -17z m189 13 c0 -21 -17 -36 -40 -36 l-28 0 2 -85 c1 -82 0
-85 -21 -85 -18 0 -23 6 -24 28 0 15 -2 52 -2 82 -2 52 -3 55 -29 58 -26 3
-36 20 -21 35 7 7 163 10 163 3z"/>
</g>
</svg>
