<?xml version="1.0" encoding="utf-8"?>
<!-- Generator: Adobe Illustrator 21.1.0, SVG Export Plug-In . SVG Version: 6.00 Build 0)  -->
<svg version="1.1" id="Calque_1" xmlns="http://www.w3.org/2000/svg" xmlns:xlink="http://www.w3.org/1999/xlink" x="0px" y="0px"
	 viewBox="0 0 500 133.3" style="enable-background:new 0 0 500 133.3;" xml:space="preserve">
<style type="text/css">
	.st0{fill:#FFFFFF;}
</style>
<g>
	<g>
		<path class="st0" d="M7.4,82c0-15.1,13.6-18.8,28.2-14.5L35,79c-3.4-1.2-7.3-0.1-7.3,3h7.4v13.5h-7.7v30.8H7.4V95.4H2.5V82H7.4z"
			/>
		<path class="st0" d="M62.3,126.3H42.4V81.3h18.4l0.8,4c2.7-5.4,10.2-5.8,15.4-4.2l-0.4,18c-7.6-2.3-14.3,1.1-14.3,9.7V126.3z"/>
		<path class="st0" d="M131.5,108.7h-30.8c0.9,5.6,8.6,6.3,12,2.3h18.3c-3.8,11.5-13,16.4-24.9,16.4c-14.5,0-24.7-9.5-24.7-23.9
			c0-15,11.2-23.5,25.4-23.5c12.6,0.1,25.1,7.9,25.1,23.5C132,105.4,131.8,107.1,131.5,108.7z M112.9,99.8c-1.1-6.1-11.2-6-12.2,0
			H112.9z"/>
		<path class="st0" d="M188.2,108.7h-30.8c0.9,5.6,8.6,6.3,12,2.3h18.3c-3.8,11.5-13,16.4-24.9,16.4c-14.5,0-24.7-9.5-24.7-23.9
			c0-15,11.2-23.5,25.4-23.5c12.6,0.1,25.1,7.9,25.1,23.5C188.7,105.4,188.5,107.1,188.2,108.7z M169.6,99.8c-1.1-6.1-11.2-6-12.2,0
			H169.6z"/>
		<path class="st0" d="M216,68.2v58.1h-20.1V68.2H216z"/>
		<path class="st0" d="M276.2,126.3h-18.9l-0.4-4.3c-3.1,3.8-7.7,5.1-12,5.1c-28.6,0.3-28.6-46.9,0-46.5c4.3,0,8.9,1.3,12,5l0.4-4.3
			h18.9V126.3z M256.2,103.8c0-8.7-12.4-8.6-12.4,0S256.2,112.5,256.2,103.8z"/>
		<path class="st0" d="M304.2,81.3v4.6c3.2-4,7.7-5.4,12.1-5.3c13.4,0.3,18.1,9.2,18.1,21.3v24.3h-19.9V102c0-3.2-2-4.8-4.6-4.8
			c-2.4,0-5,1.6-5,4.8v24.2H285c0-19.4,0-25.5,0-44.9H304.2z"/>
		<path class="st0" d="M394.6,126.3h-18.8l-0.4-4.3c-3.2,3.8-7.7,5.1-12.1,5.1c-14,0.2-21.2-10.8-21.3-22.7
			c-0.2-13.2,8.2-23.7,21.9-23.7c3.5,0,7.9,0.8,10.6,3.1V68.1c6.6,0,13.3,0,19.9,0L394.6,126.3L394.6,126.3z M362.2,103.6
			c0,8.9,12.4,9.1,12.4,0.3C374.7,95.2,362.2,95.3,362.2,103.6z"/>
	</g>
	<g>
		<path class="st0" d="M496,3.8c5.5,25.1-13.7,37.9-20.5,37.9l0,0c1.8,0,10.3,5.8,10.3,14.5c0,3.1-1.1,4-1.1,5.6s0.6,3.4,2.3,5.4
			l-1,1c-2.9-2.8-5.6-2.6-8.2-2.2c-2.8,0.4-19.6-2.4-19.6-27.5C458.2,10.1,486.1,3.8,496,3.8z"/>
		<path class="st0" d="M418.8,3.8c-5.5,25.1,13.7,37.9,20.5,37.9l0,0c-1.8,0-10.3,5.8-10.3,14.5c0,3.1,1.1,4,1.1,5.6
			s-0.6,3.4-2.3,5.4l1,1c2.9-2.8,5.6-2.6,8.2-2.2c2.8,0.4,19.6-2.4,19.6-27.5C456.6,10.1,428.7,3.8,418.8,3.8z"/>
	</g>
</g>
</svg>
