<?xml version="1.0" encoding="utf-8"?>
<!-- Generator: Adobe Illustrator 21.1.0, SVG Export Plug-In . SVG Version: 6.00 Build 0)  -->
<svg version="1.1" id="Calque_1" xmlns="http://www.w3.org/2000/svg" xmlns:xlink="http://www.w3.org/1999/xlink" x="0px" y="0px"
	 viewBox="0 0 350 300" style="enable-background:new 0 0 350 300;" xml:space="preserve">
<style type="text/css">
	.st0{fill:#E2E2E1;}
	.st1{fill:#FFFFFF;}
	.st2{display:none;}
	.st3{display:inline;}
	.st4{display:inline;fill:#FFFFFF;}
</style>
<g>
	<path class="st0" d="M171.4,87.8c3.3-1.6,6.6-3.2,10-4.6c-0.3-0.6-0.6-1.4-0.9-2.1c-3,1.3-6,2.7-9.2,4.3
		c-26.7,13.3-48.2,31.2-62.6,50.1c1.3,0.5,2.4,1.1,3.5,1.7C124.4,118.6,145.1,100.7,171.4,87.8L171.4,87.8z"/>
	<path class="st0" d="M188.6,77.6c0.2,0.8,0.5,1.6,0.8,2.2c4.9-1.9,10-3.3,14.7-4.7V75c0-0.9-0.2-1.7-0.3-2.5
		C198.9,74,193.6,75.7,188.6,77.6L188.6,77.6z"/>
	<path class="st0" d="M313.4,121.9c-4.4-4.9-9.8-7.7-16-8.4c-0.5,15.3-8.9,32.3-23.4,48.1c-4.3,4.6-9,9.2-14.2,13.4
		c-9.8,8.2-21.3,15.8-34.2,22.1c-52.5,26.1-107.2,22.8-122.2-7.6c-0.2-0.3-0.3-0.6-0.5-0.9c-1.9-4-2.8-8.2-3.2-12.7
		c-0.6-8.5,1.4-17.7,5.7-27c-1.3-1.1-2.7-1.9-4.3-2.4c-5.5,9.3-9,18.8-10.6,27.8c-0.8,4.7-0.9,9.3-0.6,13.8
		c0.5,5.7,2.1,11.2,4.6,16.4c17.9,36.1,81.3,41,141.5,11.1c16.4-8.2,31-18,43-28.9c5.5-4.9,10.4-10.1,14.9-15.3
		c12.5-14.9,20.4-30.5,22.8-45.4C315.7,124.8,314.6,123.3,313.4,121.9L313.4,121.9z"/>
	<path class="st0" d="M312.7,96.5c-13.8-27.8-54.6-37-100.3-26.3c-2.8,0.6-5.7,1.4-8.5,2.2c0.2,0.8,0.3,1.6,0.3,2.5v0.2
		c3-0.8,6-1.6,8.9-2.1c37.2-7.7,69.6,0,80.5,22.1c0.2,0.2,0.2,0.3,0.3,0.5c0.2,0,0.3,0,0.5,0c7.3,0,13.9,1.3,19.9,4
		C313.7,98.7,313.2,97.6,312.7,96.5L312.7,96.5z"/>
	<path class="st1" d="M152.1,136.5c-2.8,1.6-5.4,3.5-7.3,5.7V135h-15v54.2h15v-23.4c0-5.2,1.1-9.5,3.3-12.7
		c2.2-3.2,5.5-4.7,10.1-4.7h2.8l-0.2-14.2C158.1,134.1,155.1,134.9,152.1,136.5L152.1,136.5z"/>
	<polygon class="st1" points="244.3,115.6 228.6,109 215.8,126.8 230.2,126.8 	"/>
	<path class="st1" d="M112,137.1c-1.1-0.6-2.2-1.3-3.5-1.7c-3.5-1.4-7.3-2.1-11.5-2.1c-5.7,0-10.9,1.3-15.2,4
		c0.5-2.5,0.6-5.2,0.6-8.2c0-11.7-3.3-20.2-10-25.9c-6.6-5.7-17.2-8.4-31.6-8.4H7.5v94.4h21v-26.4H41c11.7,0,20.9-1.9,27.5-5.7
		c-0.2,1.4-0.3,2.7-0.3,4.1c0,7.9,2.7,14.4,8.2,19.8c3.8,3.6,8.2,6.2,13.3,7.3c-0.3-4.4-0.2-9.2,0.6-13.8c-1.1-0.6-2.1-1.4-3-2.5
		c-2.5-2.8-3.8-6.3-3.8-10.8c0-4.4,1.3-8.1,3.8-10.9c2.5-2.8,5.7-4.3,9.6-4.3c1.4,0,2.7,0.2,4,0.6c1.6,0.5,3,1.3,4.3,2.4
		c0.5,0.5,0.9,0.8,1.4,1.4c2.5,2.8,3.8,6.5,3.8,10.9s-1.3,8.1-3.8,10.8c-1.9,2.2-4.3,3.5-7.1,4c0.3,4.4,1.4,8.7,3.2,12.7
		c5.7-0.9,10.6-3.5,14.7-7.6c5.4-5.4,8.2-12,8.2-19.8c0-7.9-2.7-14.5-8.2-19.9C115.8,139.6,114.1,138.2,112,137.1L112,137.1z
		 M57.2,140.3c-2.5,2.8-7.3,4.3-14.4,4.3H28.6v-31.8h12c7,0,12,1.1,15.3,3.5c3.3,2.4,4.9,6.2,4.9,11.5
		C60.8,133.3,59.5,137.4,57.2,140.3L57.2,140.3z"/>
	<path class="st1" d="M314.1,99.8c-6-2.7-12.7-4-19.9-4c-0.2,0-0.3,0-0.5,0c-13.1,0.2-24.2,4.6-33.2,13.4
		c-9.2,8.9-13.6,19.9-13.8,33.1c-0.6-0.8-1.4-1.6-2.2-2.2c-5.2-4.4-11.5-6.8-19-6.8c-7.4,0-13.9,2.5-19.5,7.6
		c-5.5,5.1-8.2,11.9-8.2,20.4c0,1.9,0.2,3.6,0.3,5.2l0,0c-5.5,7.4-9.5,9.2-9.8,9.2c-0.6,0.2-1.4,0.3-2.1,0.3c-1.4,0-2.7-0.6-3.8-1.7
		c-1.1-1.1-1.6-2.8-1.6-4.9v-24.2h13.1v-10.9H181v-16.1h-15.2v16.1v10.9v25c0,5.9,1.7,10.6,5.4,13.9c3.6,3.5,8.1,5.1,13.1,5.1
		c4.7,0,9.3-1.7,13.6-5.4l0,0l0,0c0.5-0.3,0.8-0.6,1.3-1.1l0,0l4.3-4c0.8,0.9,1.6,1.9,2.5,2.8c5.4,5.1,12.2,7.6,20.4,7.6
		c8.2,0,15.3-2.8,21.5-8.7l-8.4-9.2c-3.5,3.5-7.7,5.4-13.1,5.4c-3.3,0-6.2-0.9-8.9-2.8c-2.7-1.9-4.1-4.3-4.6-7.3h39.5v-1.6
		c2.1,3.6,4.4,7,7.6,10c5.2-4.3,10-8.9,14.2-13.4c-4.3-5.4-6.5-11.7-6.5-19.1c0-8.1,2.5-14.9,7.7-20.6c5.2-5.7,11.5-8.5,19.1-8.5
		c1.1,0,2.1,0,3,0.2c6.2,0.6,11.5,3.5,16,8.4c1.3,1.4,2.4,2.8,3.3,4.3c3,4.7,4.4,10.1,4.4,16.3c0,8.1-2.5,14.9-7.7,20.6
		c-5.2,5.7-11.5,8.5-19.1,8.5c-0.2,0-0.3,0-0.5,0c-4.4,5.2-9.5,10.4-14.9,15.3c4.7,1.4,9.8,2.2,15.3,2.2c13.3,0,24.7-4.4,33.7-13.4
		c9.2-8.9,13.8-20.1,13.8-33.4s-4.6-24.4-13.8-33.4C323.8,105.2,319.2,102,314.1,99.8L314.1,99.8z M213.3,155.8
		c0.5-3.2,1.9-5.5,4.3-7.3c2.5-1.7,5.2-2.7,8.2-2.7c3,0,5.5,0.9,7.6,2.7c2.1,1.7,3.3,4.3,3.6,7.4h-23.7V155.8z"/>
	<path class="st1" d="M196.2,66.1c2.4,0,4.3,0.8,5.7,2.5c0.9,1.1,1.6,2.4,1.9,3.8c2.8-0.8,5.7-1.6,8.5-2.2c-0.8-2.5-2.2-4.9-4.1-7
		c-3.2-3.2-7.3-4.7-12.2-4.7s-8.9,1.6-12.2,4.7c-3.2,3.2-4.9,7.1-4.9,11.7c0,2.2,0.3,4.1,1.1,6c0.3,0.8,0.6,1.4,0.9,2.1
		c0.8,1.3,1.7,2.5,2.8,3.6c3.2,3.2,7.3,4.7,12.2,4.7s8.9-1.6,12.2-4.7c3.2-3.2,4.9-7.1,4.9-11.7c0-0.6,0-1.3-0.2-2.1
		c-3,0.6-5.9,1.3-8.9,2.1c0,2.5-0.8,4.6-2.2,6.3c-1.4,1.6-3.3,2.5-5.7,2.5c-2.4,0-4.3-0.8-5.7-2.5c-0.5-0.5-0.8-0.9-1.1-1.6
		s-0.6-1.4-0.8-2.2s-0.3-1.7-0.3-2.7c0-2.7,0.8-4.7,2.2-6.5C191.9,67.1,193.8,66.1,196.2,66.1L196.2,66.1z"/>
</g>
<g id="LOGO_x2F_blanc_2_" transform="translate(0.000000, 1.000000)" class="st2">
	<g id="LOGO_2_" class="st3">
		<path id="Fill-1_2_" class="st1" d="M6.9,58.6v160.9c0,16.1,10.2,24.7,19.9,24.7h12.3V78.4c0-11.8-9.1-19.9-17.1-19.9H6.9z"/>
		<path id="Fill-6_2_" class="st1" d="M80.4,58.6c-15,0-22.5,11.3-22.5,20.4v12.3h53.1v128.2c0,16.6,9.7,24.7,22.5,24.7h15V91.3
			h33.8c12.3,0,22-11.8,22-20.9V58.6L80.4,58.6L80.4,58.6z"/>
		<g id="Group-13_2_" transform="translate(33.283019, 0.000000)">
			<g id="Clip-12_2_">
			</g>
			<path id="Fill-11_2_" class="st1" d="M154.8,151.3c0,57.4,43.4,93.3,92.2,93.3c46.1,0,61.7-18.2,61.7-46.1V169
				c0-8-8.6-17.1-18.8-17.1h-18.8c0,0,2.7,12.3,2.7,26.8v15c0,10.7-4.3,17.7-22,17.7c-33.3,0-58.5-18.2-58.5-64.9
				c0-34.3,24.7-59,59-59c19.3,0,40.2,5.4,52.6,15.6h1.6V89.7c0-17.1-15-36.5-49.9-36.5C192.9,53.2,154.8,96.7,154.8,151.3"/>
		</g>
	</g>
</g>
<g transform="translate(0.000000,474.000000) scale(0.100000,-0.100000)" class="st2">
	<path class="st4" d="M3221.5,4113.9c-24.5-9-55.4-37.4-69.1-63.5c-9.4-18.5-11.6-27.5-11.6-56.2c0-40.4,8.6-60.5,39.1-91
		c58-58,144.7-47.2,197.1,24.5c15,20.2,15,20.6,15,66.5v45.9l-21.9,27.5c-30.5,38.6-50.7,49.4-95.3,51.5
		C3250.2,4120.4,3233.9,4118.6,3221.5,4113.9z"/>
	<path class="st4" d="M388.7,3704.3c-36.1-5.2-118.9-23.2-155.4-33.9l-30.5-9l9.9-35.6c5.2-19.3,15.9-57.5,23.6-85l13.7-49.8
		l19.3,5.6c10.7,3.4,44.7,10.7,76,17.2c94,18.5,179.9,15,241.7-9.9c37.8-15,59.2-39.9,82.4-95.3c9.4-23.6,17.6-43.8,17.6-45.1
		c0-0.9-34.3-0.9-76,0.4c-80.3,2.6-148.5-2.1-205.2-13.7c-48.1-10.3-66.5-16.7-122.4-43.8c-43.4-21.5-53.7-28.8-86.3-61
		c-31.3-31.3-39.9-43.4-56.7-77.7c-31.3-65.3-34.3-80.7-31.8-158.4c3.4-100.5,20.6-151.1,68.3-198.8c45.1-45.1,91-67.8,169.6-83.7
		c35.6-7.3,82-7.7,850.5-6l812.3,1.7v-181.2v-180.7h111.6h111.6l0.9,179l1.3,179.5l570.2,1.3l569.7,0.9v493.7v493.7h-173.9H3027
		V3612v-96.6h60.1h60.1V3202v-313.4h-165.3c-91,0-165.3,0.9-165.3,1.7s8.6,20.2,19.3,42.9c34.3,74.3,58,160.6,64.4,236.6
		c5.6,65.7-11.2,192.3-34.8,264c-49.8,150.3-137.4,227.5-300.1,265.3c-27.5,6-127.9,6.9-1090.5,7.7
		C891.5,3707.3,402.9,3706.1,388.7,3704.3z M1146.5,3541.6c0-2.1-9-19.3-20.2-37.8c-70.4-118.5-95.7-211.7-90.2-331.4
		c3.9-83.7,25.3-157.1,71.7-243.9l21.5-39.9h-111.6c-76.4,0-112.1,1.3-114.2,4.7c-1.3,2.6-4.3,97-6.4,209.5
		c-4.3,244.3-9.4,301-36.5,395.4c-5.6,19.7-10.3,37.8-10.3,39.5s61.4,3.9,136.5,4.7c74.7,0.4,141.3,1.3,148.1,2.1
		C1141.3,3545,1146.5,3543.8,1146.5,3541.6z M2012.9,3212.3l-1.3-324.6l-92.3,0.9c-66.5,0-93.6,1.7-97,5.6c-2.6,3-12,21.5-20.6,41.6
		c-9,20.2-18,38.2-20.2,40.4c-2.1,2.6-25.3-6.4-58.4-22.3c-74.7-35.6-109.9-44.7-171.7-44.7c-91,0.9-164.9,27-213.8,76
		c-30.9,30.9-48.1,63.1-62.7,118.1c-13.7,51.5-14.2,153.3-0.4,203.9c24.9,91.9,82.4,159.3,161.9,188.9
		c41.2,15.5,63.5,19.7,106.9,19.7c55.8,0,112.1-14.6,188-49.4l24.5-11.2l25.3,33.5c14.2,18.5,28.3,35.6,31.3,38.2
		c8.6,6.9,27.9,8.2,121.1,9l80.3,0.9L2012.9,3212.3z M2494.6,3512.4c92.3-26.2,136.1-68.3,161-154.6c29.6-101.3,20.6-251.6-20.2-331
		c-16.7-33.5-55.4-73.8-84.6-88.4c-45.1-22.8-82.9-30.5-150.7-30.1c-52.8,0-68.3,1.7-103,11.2c-22.3,6-45.9,13.3-52.4,15.9l-12,4.7
		v196.6c0,108.2,1.3,228.8,3,267.9l2.6,70.8l17.6,11.2C2318.6,3526.2,2411.7,3536,2494.6,3512.4z M676.4,3122.6
		c-0.4-102.2-11.6-140.8-51.9-178.2c-37.8-34.8-82-49.4-149.8-49.4c-76,0-111.6,16.3-137.4,62.7c-12,21.5-12.9,26.6-12.9,66.1
		c0,38.2,1.3,45.9,12.5,70c6.9,15,19.7,33.5,29.6,42.1c22.3,20.2,69.6,42.1,110.3,50.7c44.7,9.4,53.2,9.9,130.9,9.4l68.7-0.4V3122.6
		z"/>
</g>
</svg>
